<svg width="96" height="96" viewBox="0 0 96 96" fill="none" xmlns="http://www.w3.org/2000/svg">
<path d="M81.1586 61.4228C79.6293 63.2273 78.3672 65.3595 77.5118 67.7795H18.4152C17.5035 65.3741 16.1641 63.2399 14.5556 61.4228H8.83519C6.39847 61.4228 3.98261 60.7301 1.88595 59.4513H0V65.5451C0 68.2385 1.75243 71.1509 3.17733 72.3796C4.31015 73.3602 6.71141 74.3511 8.83519 74.3511H87.1606C92.0132 74.3511 95.9979 70.3935 95.9979 65.5431V58.0264C93.6551 60.1355 90.557 61.4207 87.1606 61.4207H81.1586V61.4228Z" fill="url(#paint0_linear)"/>
<path d="M87.1606 4.32886H8.83519C3.9847 4.32886 0 8.18421 0 13.0326V48.2086C0 50.9019 1.75035 53.8268 3.17733 55.066C4.31015 56.0465 6.71141 57.0375 8.83519 57.0375H87.1606C92.0132 57.0375 95.9979 53.057 95.9979 48.2086V13.0326C96 8.18421 92.0132 4.32886 87.1606 4.32886ZM89.4221 38.3282C84.2712 40.1766 79.646 44.4366 77.5118 50.4617H18.4152C16.2163 44.6557 11.5077 40.3873 6.5758 38.4575V22.8462C11.6182 20.9853 16.2017 16.8212 18.3797 10.7941H77.5661C79.6919 17.1487 84.1648 21.1814 89.4284 22.9589V38.3282H89.4221Z" fill="url(#paint1_linear)"/>
<path d="M47.927 15.0771C39.3275 15.0771 32.3574 22.0472 32.3574 30.6488C32.3574 39.2482 39.3275 46.2204 47.927 46.2204C56.5285 46.2204 63.4986 39.2482 63.4986 30.6488C63.5007 22.0472 56.5285 15.0771 47.927 15.0771ZM49.2058 39.5612V42.4631H46.4666V39.7614C44.493 39.6759 42.6425 39.1585 41.5514 38.5243L42.4026 35.1592C43.6106 35.8205 45.3025 36.4235 47.1697 36.4235C48.8094 36.4235 49.9277 35.7893 49.9277 34.6418C49.9277 33.5486 49.0055 32.8581 46.8776 32.1383C43.7983 31.1015 41.7058 29.6641 41.7058 26.8727C41.7058 24.3421 43.5042 22.356 46.573 21.7531V19.0139H49.4228V21.5549C51.2858 21.6404 52.621 22.0431 53.5681 22.5041L52.7274 25.7545C51.9784 25.4395 50.6495 24.776 48.58 24.776C46.7107 24.776 46.1036 25.5813 46.1036 26.3866C46.1036 27.3358 47.105 27.9388 49.5521 28.8609C52.9777 30.0688 54.34 31.6502 54.34 34.2413C54.3421 36.8011 52.4937 38.9874 49.2058 39.5612Z" fill="url(#paint2_linear)"/>
<path d="M81.1586 78.7384C79.6293 80.5409 78.3672 82.6731 77.5118 85.0931H18.4152C17.5035 82.6897 16.1641 80.5535 14.5556 78.7384H8.83519C6.39847 78.7384 3.98261 78.0458 1.88595 76.7649H0V82.8608C0 85.5541 1.75243 88.4665 3.17733 89.6953C4.31015 90.6758 6.71141 91.6689 8.83519 91.6689H87.1606C92.0132 91.6689 95.9979 87.7092 95.9979 82.8587V75.342C93.6551 77.4512 90.557 78.7363 87.1606 78.7363H81.1586V78.7384Z" fill="url(#paint3_linear)"/>
<defs>
<linearGradient id="paint0_linear" x1="47.999" y1="58.0264" x2="47.999" y2="74.3511" gradientUnits="userSpaceOnUse">
<stop offset="0.395833" stop-color="#9657F6"/>
<stop offset="0.734375" stop-color="#00DBA1"/>
</linearGradient>
<linearGradient id="paint1_linear" x1="47.999" y1="4.32886" x2="47.999" y2="57.0375" gradientUnits="userSpaceOnUse">
<stop offset="0.395833" stop-color="#9657F6"/>
<stop offset="0.734375" stop-color="#00DBA1"/>
</linearGradient>
<linearGradient id="paint2_linear" x1="47.928" y1="15.0771" x2="47.928" y2="46.2204" gradientUnits="userSpaceOnUse">
<stop offset="0.395833" stop-color="#9657F6"/>
<stop offset="0.734375" stop-color="#00DBA1"/>
</linearGradient>
<linearGradient id="paint3_linear" x1="47.999" y1="75.342" x2="47.999" y2="91.6689" gradientUnits="userSpaceOnUse">
<stop offset="0.395833" stop-color="#9657F6"/>
<stop offset="0.734375" stop-color="#00DBA1"/>
</linearGradient>
</defs>
</svg>
